<?xml version="1.0" encoding="UTF-8" standalone="no"?>
<svg
   viewBox="0 0 108 108"
   id="vector"
   version="1.1"
   xmlns:inkscape="http://www.inkscape.org/namespaces/inkscape"
   xmlns:sodipodi="http://sodipodi.sourceforge.net/DTD/sodipodi-0.dtd"
   xmlns:xlink="http://www.w3.org/1999/xlink"
   xmlns="http://www.w3.org/2000/svg"
   xmlns:svg="http://www.w3.org/2000/svg">
  <sodipodi:namedview
     id="namedview13"
     pagecolor="#505050"
     bordercolor="#eeeeee"
     borderopacity="1"
     inkscape:showpageshadow="0"
     inkscape:pageopacity="0"
     inkscape:pagecheckerboard="0"
     inkscape:deskcolor="#505050"
     showgrid="false"
     inkscape:zoom="5.7485162"
     inkscape:cx="70.887857"
     inkscape:cy="53.666022"
     inkscape:window-width="1920"
     inkscape:window-height="1009"
     inkscape:window-x="0"
     inkscape:window-y="0"
     inkscape:window-maximized="1"
     inkscape:current-layer="vector" />
  <defs
     id="defs10">
    <inkscape:path-effect
       effect="powermask"
       id="path-effect1861"
       is_visible="true"
       lpeversion="1"
       uri="#mask-powermask-path-effect1861"
       invert="false"
       hide_mask="false"
       background="true"
       background_color="#ffffffff" />
    <linearGradient
       id="linearGradient874">
      <stop
         style="stop-color:#000000;stop-opacity:0.26666668;"
         offset="0"
         id="stop870" />
      <stop
         style="stop-color:#000000;stop-opacity:0;"
         offset="1"
         id="stop872" />
    </linearGradient>
    <linearGradient
       xlink:href="#linearGradient874"
       id="linearGradient876"
       x1="42.9492"
       y1="49.59793"
       x2="85.84757"
       y2="92.4963"
       gradientUnits="userSpaceOnUse" />
    <clipPath
       clipPathUnits="userSpaceOnUse"
       id="clipPath1868">
      <path
         d="M 0,54 C 0,13.5 13.499999,0 53.999997,0 94.499993,0 108,13.5 108,54 108,94.5 94.499993,108 53.999997,108 13.499999,108 0,94.5 0,54"
         fill="#4f5b62"
         id="path1870"
         style="fill:#000000;stroke-width:0.540001" />
    </clipPath>
  </defs>
  <path
     d="M 0,54 C 0,13.5 13.499999,0 53.999997,0 94.499991,0 108,13.5 108,54 108,94.5 94.499991,108 53.999997,108 13.499999,108 0,94.5 0,54"
     fill="#4f5b62"
     id="path949"
     style="stroke-width:0.540001" />
  <g
     id="g1827"
     mask="none"
     clip-path="url(#clipPath1868)">
    <path
       id="path"
       d="M 25.96 39.26 L 76.85 90.21 L 12.45 90.21 L 30.77 108 L 108 108 L 108 66.02 L 82.04 39.26"
       fill="none"
       style="fill:url(#linearGradient876);fill-opacity:1" />
    <path
       id="path_1"
       d="M 12.45 74.98 L 95.55 74.98 L 95.55 90.22 L 12.45 90.22 Z"
       fill="#ffffff" />
    <path
       id="path_2"
       d="M 46.5 41.26 L 61.5 41.26 L 61.5 72.97 L 46.5 72.97 Z"
       fill="#ffffff" />
    <path
       id="path_3"
       d="M 25.96 35.33 L 82.03 35.33 L 82.03 39.26 L 25.96 39.26 Z"
       fill="#ffffff" />
    <path
       id="path_4"
       d="M 46.5 13.36 L 61.5 13.36 L 61.5 33.33 L 46.5 33.33 Z"
       fill="#ffffff" />
  </g>
</svg>
